<svg width="5" height="9" viewBox="0 0 5 9" fill="none" xmlns="http://www.w3.org/2000/svg">
<path d="M4.24842 -1.91295e-06C4.05686 -1.91295e-06 3.8643 0.0732125 3.71787 0.219641L0.220621 3.69984C0.0792073 3.84125 -2.48684e-05 4.03281 -2.48684e-05 4.2334C-2.48684e-05 4.43299 0.0792073 4.62455 0.220621 4.76596L3.71787 8.24816C4.01173 8.54102 4.48712 8.54102 4.78098 8.24616C5.07384 7.95129 5.07284 7.4749 4.77898 7.18204L1.8173 4.2334L4.77898 1.28476C5.07284 0.991904 5.07384 0.516512 4.78098 0.221648C4.63455 0.0732135 4.44099 -1.91295e-06 4.24842 -1.91295e-06Z" fill="#1E222B"/>
</svg>
