<svg width="59" height="59" viewBox="0 0 59 59" fill="none" xmlns="http://www.w3.org/2000/svg">
<path d="M1.00568 12.4034C1.00568 9.38053 2.20651 6.48148 4.34399 4.34399C6.48148 2.20651 9.38053 1.00568 12.4034 1.00568H46.5965C49.6194 1.00568 52.5184 2.20651 54.6559 4.34399C56.7934 6.48148 57.9942 9.38053 57.9942 12.4034V46.5965C57.9942 49.6194 56.7934 52.5184 54.6559 54.6559C52.5184 56.7934 49.6194 57.9942 46.5965 57.9942H12.4034C9.38053 57.9942 6.48148 56.7934 4.34399 54.6559C2.20651 52.5184 1.00568 49.6194 1.00568 46.5965V12.4034Z" stroke="#A1ABC0" stroke-width="2" stroke-linecap="round" stroke-linejoin="round"/>
<path d="M19.527 26.6506C23.4612 26.6506 26.6506 23.4612 26.6506 19.527C26.6506 15.5928 23.4612 12.4034 19.527 12.4034C15.5928 12.4034 12.4034 15.5928 12.4034 19.527C12.4034 23.4612 15.5928 26.6506 19.527 26.6506Z" stroke="#A1ABC0" stroke-width="2" stroke-linecap="round" stroke-linejoin="round"/>
<path d="M36.6977 31.2696L12.4034 57.9944H46.9755C49.8979 57.9944 52.7006 56.8335 54.767 54.767C56.8334 52.7006 57.9943 49.898 57.9943 46.9756V46.5966C57.9943 45.2688 57.4956 44.7588 56.5981 43.7757L45.1149 31.2525C44.5797 30.6687 43.9287 30.2028 43.2034 29.8847C42.4781 29.5665 41.6945 29.403 40.9025 29.4046C40.1105 29.4062 39.3275 29.5729 38.6036 29.894C37.8796 30.2151 37.2305 30.6836 36.6977 31.2696V31.2696Z" stroke="#A1ABC0" stroke-width="2" stroke-linecap="round" stroke-linejoin="round"/>
</svg>
