<svg width="31" height="31" viewBox="0 0 31 31" fill="none" xmlns="http://www.w3.org/2000/svg">
<g opacity="0.6">
<path d="M2.58337 7.74992C2.58337 6.37963 3.12772 5.06547 4.09666 4.09653C5.06559 3.1276 6.37976 2.58325 7.75004 2.58325H23.25C24.6203 2.58325 25.9345 3.1276 26.9034 4.09653C27.8724 5.06547 28.4167 6.37963 28.4167 7.74992V23.2499C28.4167 24.6202 27.8724 25.9344 26.9034 26.9033C25.9345 27.8722 24.6203 28.4166 23.25 28.4166H7.75004C6.37976 28.4166 5.06559 27.8722 4.09666 26.9033C3.12772 25.9344 2.58337 24.6202 2.58337 23.2499V7.74992Z" stroke="#A1ABC0" stroke-width="2" stroke-linecap="round" stroke-linejoin="round"/>
<path d="M10.9792 14.2083C12.7626 14.2083 14.2083 12.7626 14.2083 10.9792C14.2083 9.19575 12.7626 7.75 10.9792 7.75C9.19575 7.75 7.75 9.19575 7.75 10.9792C7.75 12.7626 9.19575 14.2083 10.9792 14.2083Z" stroke="#A1ABC0" stroke-width="2" stroke-linecap="round" stroke-linejoin="round"/>
<path d="M18.7628 16.3021L7.75 28.4166H23.4218C24.7465 28.4166 26.017 27.8904 26.9537 26.9536C27.8904 26.0169 28.4167 24.7465 28.4167 23.4217V23.2499C28.4167 22.648 28.1906 22.4168 27.7838 21.9712L22.5783 16.2943C22.3357 16.0297 22.0406 15.8185 21.7119 15.6743C21.3831 15.5301 21.0278 15.4559 20.6688 15.4567C20.3098 15.4574 19.9549 15.533 19.6267 15.6785C19.2985 15.8241 19.0043 16.0364 18.7628 16.3021V16.3021Z" stroke="#A1ABC0" stroke-width="2" stroke-linecap="round" stroke-linejoin="round"/>
</g>
</svg>
