<svg width="59" height="59" viewBox="0 0 59 59" fill="none" xmlns="http://www.w3.org/2000/svg">
<path d="M1.00568 12.4034C1.00568 9.38053 2.20651 6.48148 4.34399 4.34399C6.48148 2.20651 9.38053 1.00568 12.4034 1.00568H46.5965C49.6194 1.00568 52.5184 2.20651 54.6559 4.34399C56.7934 6.48148 57.9942 9.38053 57.9942 12.4034V46.5965C57.9942 49.6194 56.7934 52.5184 54.6559 54.6559C52.5184 56.7934 49.6194 57.9942 46.5965 57.9942H12.4034C9.38053 57.9942 6.48148 56.7934 4.34399 54.6559C2.20651 52.5184 1.00568 49.6194 1.00568 46.5965V12.4034Z" stroke="black" stroke-width="2" stroke-linecap="round" stroke-linejoin="round"/>
<path d="M19.5269 26.6505C23.4611 26.6505 26.6505 23.4611 26.6505 19.5269C26.6505 15.5926 23.4611 12.4033 19.5269 12.4033C15.5926 12.4033 12.4033 15.5926 12.4033 19.5269C12.4033 23.4611 15.5926 26.6505 19.5269 26.6505Z" stroke="black" stroke-width="2" stroke-linecap="round" stroke-linejoin="round"/>
<path d="M36.6975 31.2696L12.4033 57.9944H46.9754C49.8978 57.9944 52.7004 56.8335 54.7668 54.767C56.8333 52.7006 57.9942 49.898 57.9942 46.9756V46.5966C57.9942 45.2688 57.4955 44.7588 56.5979 43.7757L45.1147 31.2525C44.5796 30.6687 43.9286 30.2028 43.2033 29.8847C42.478 29.5665 41.6944 29.403 40.9024 29.4046C40.1104 29.4062 39.3274 29.5729 38.6034 29.894C37.8795 30.2151 37.2303 30.6836 36.6975 31.2696V31.2696Z" stroke="black" stroke-width="2" stroke-linecap="round" stroke-linejoin="round"/>
</svg>
