<svg width="110" height="110" viewBox="0 0 110 110" fill="none" xmlns="http://www.w3.org/2000/svg">
<path d="M1.00456 22.6027C1.00456 16.8745 3.28007 11.3809 7.33051 7.33051C11.3809 3.28007 16.8745 1.00456 22.6027 1.00456H87.3971C93.1252 1.00456 98.6188 3.28007 102.669 7.33051C106.72 11.3809 108.995 16.8745 108.995 22.6027V87.3971C108.995 93.1252 106.72 98.6188 102.669 102.669C98.6188 106.72 93.1252 108.995 87.3971 108.995H22.6027C16.8745 108.995 11.3809 106.72 7.33051 102.669C3.28007 98.6188 1.00456 93.1252 1.00456 87.3971V22.6027Z" stroke="white" stroke-width="2" stroke-linecap="round" stroke-linejoin="round"/>
<path d="M36.1015 49.6003C43.5567 49.6003 49.6003 43.5567 49.6003 36.1015C49.6003 28.6463 43.5567 22.6027 36.1015 22.6027C28.6463 22.6027 22.6027 28.6463 22.6027 36.1015C22.6027 43.5567 28.6463 49.6003 36.1015 49.6003Z" stroke="white" stroke-width="2" stroke-linecap="round" stroke-linejoin="round"/>
<path d="M68.6391 58.3531L22.6027 108.995H88.1152C93.6529 108.995 98.9638 106.795 102.88 102.88C106.795 98.964 108.995 93.6531 108.995 88.1153V87.3972C108.995 84.881 108.05 83.9145 106.349 82.0517L84.5893 58.3207C83.5751 57.2144 82.3415 56.3317 80.9672 55.7288C79.5928 55.1259 78.1078 54.8161 76.6071 54.8191C75.1063 54.8222 73.6226 55.138 72.2507 55.7465C70.8788 56.355 69.6488 57.2427 68.6391 58.3531V58.3531Z" stroke="white" stroke-width="2" stroke-linecap="round" stroke-linejoin="round"/>
</svg>
