<svg width="34" height="33" viewBox="0 0 34 33" fill="none" xmlns="http://www.w3.org/2000/svg">
<path d="M16.7726 22.9177C3.20356 22.9177 0 27.2637 0 29.2727C0 31.2816 1.66887 32.9999 3.72723 32.9999H29.8179C31.8762 32.9999 33.5451 31.2751 33.5451 29.2727C33.5451 27.2702 30.3416 22.9177 16.7726 22.9177Z" fill="#78B159"/>
<path d="M26.8402 25.6853C26.8402 27.1119 25.6829 27.6235 24.2563 27.6235C22.8297 27.6235 21.6724 27.1129 21.6724 25.6853L22.3181 19.8718C22.3181 18.4452 22.8287 18.5794 24.2563 18.5794C25.6829 18.5794 26.1944 18.4442 26.1944 19.8718L26.8402 25.6853Z" fill="#662113"/>
<path d="M32.4903 17.8273C28.2133 13.9743 26.481 8.45703 24.2559 8.45703C22.0307 8.45703 20.2985 13.9743 16.0224 17.8273C14.225 19.4468 15.0813 20.3832 17.545 20.196C19.7413 20.0292 21.795 19.5055 24.2559 19.5055C26.7168 19.5055 28.7714 20.0301 30.9668 20.196C33.4305 20.3832 34.2868 19.4458 32.4903 17.8273Z" fill="#5C913B"/>
<path d="M31.1013 16.3002C27.8149 13.1311 25.968 8.59131 24.2563 8.59131C22.5455 8.59131 20.6986 13.1311 17.4121 16.3002C14.8003 18.8188 20.8347 19.3835 24.2563 16.3002C27.6769 19.3835 33.7123 18.8188 31.1013 16.3002Z" fill="#3E721D"/>
<path d="M31.1013 13.733C27.8149 10.7717 25.968 6.53101 24.2563 6.53101C22.5455 6.53101 20.6986 10.7717 17.4121 13.733C14.8003 16.0858 20.8347 16.6132 24.2563 13.733C27.6769 16.6132 33.7123 16.0848 31.1013 13.733Z" fill="#5C913B"/>
<path d="M29.5997 11.6301C27.0344 9.31828 25.592 6.00757 24.2558 6.00757C22.9205 6.00757 21.4781 9.31828 18.9119 11.6301C16.8731 13.4667 21.5834 13.8795 24.2558 11.6301C26.9273 13.8786 31.6385 13.4667 29.5997 11.6301Z" fill="#3E721D"/>
<path d="M29.5997 9.70554C27.0344 7.39372 25.592 4.08301 24.2558 4.08301C22.9205 4.08301 21.4781 7.39372 18.9119 9.70554C16.8731 11.5421 21.5834 11.9549 24.2558 9.70554C26.9273 11.9549 31.6385 11.5431 29.5997 9.70554Z" fill="#5C913B"/>
<path d="M28.5681 7.99767C26.4976 6.13219 25.3338 3.46069 24.2557 3.46069C23.1776 3.46069 22.0138 6.13219 19.9433 7.99767C18.2977 9.48018 22.0995 9.81283 24.2557 7.99767C26.4119 9.81283 30.2146 9.48018 28.5681 7.99767Z" fill="#3E721D"/>
<path d="M28.5681 6.54967C26.4976 4.68419 25.3338 2.0127 24.2557 2.0127C23.1776 2.0127 22.0138 4.68419 19.9433 6.54967C18.2977 8.03218 22.0995 8.36483 24.2557 6.54967C26.4119 8.36483 30.2146 8.03218 28.5681 6.54967Z" fill="#5C913B"/>
<path d="M27.5379 4.41768C25.9632 2.99854 25.077 0.965332 24.2561 0.965332C23.4361 0.965332 22.5499 2.99854 20.9743 4.41768C19.7219 5.5461 22.6152 5.79862 24.2561 4.41768C25.897 5.79955 28.7903 5.5461 27.5379 4.41768Z" fill="#3E721D"/>
<path d="M27.5379 3.45235C25.9632 2.03321 25.077 0 24.2561 0C23.4361 0 22.5499 2.03321 20.9743 3.45235C19.7219 4.58077 22.6152 4.83329 24.2561 3.45235C25.897 4.83329 28.7903 4.58077 27.5379 3.45235Z" fill="#5C913B"/>
<path d="M14.0712 30.2046C13.6761 30.2046 13.3239 29.9558 13.1915 29.584L8.52132 16.5079C8.41882 16.2219 8.46261 15.9228 8.63779 15.673C8.81297 15.4261 9.09811 15.2957 9.40188 15.2957H20.359C20.7327 15.2957 21.0709 15.5007 21.2181 15.8445L26.822 28.9112C26.946 29.2001 26.9161 29.5272 26.7438 29.789C26.5686 30.0518 26.276 30.2046 25.962 30.2046H14.0712Z" fill="#F4900C"/>
<path d="M3.79724 30.2044C3.48322 30.2044 3.1897 30.046 3.01731 29.7851C2.84493 29.5224 2.81604 29.1906 2.93904 28.9018L8.54666 15.8173C8.69296 15.4744 9.03214 15.2517 9.40486 15.2517C9.77852 15.2517 10.1177 15.4753 10.264 15.8173L15.8716 28.9008C15.9955 29.1906 15.9648 29.5214 15.7924 29.7842C15.62 30.046 15.3265 30.2044 15.0125 30.2044H3.79724Z" fill="#FFCC4D"/>
<path d="M9.40192 17.5657L7.53271 30.2047H11.2693L9.40192 17.5657Z" fill="#292F33"/>
<path d="M13.1635 29.1675L13.5809 30.2046H11.2691L13.1635 29.1675ZM5.63913 29.1675L5.22168 30.2046H7.53256L5.63913 29.1675Z" fill="#FFAC33"/>
<path d="M11.2694 30.2044C11.2694 30.2044 12.9681 29.7711 13.7983 29.0043L9.40204 17.5654L11.2694 30.2044ZM7.53283 30.2044C7.53283 30.2044 5.83415 29.7711 5.00391 29.0043L9.40111 17.5645L7.53283 30.2044Z" fill="#FFE8B6"/>
<path d="M12.696 4.69626C12.6792 4.69626 12.6643 4.70185 12.6475 4.70185C12.6792 4.54903 12.696 4.39156 12.696 4.22942C12.696 2.9426 11.6533 1.8999 10.3665 1.8999C9.53624 1.8999 8.81316 2.33692 8.40036 2.99105C8.14225 2.89228 7.86457 2.83264 7.57105 2.83264C6.383 2.83264 5.41392 3.72438 5.27042 4.8733C5.00765 4.76801 4.72717 4.69626 4.4262 4.69626C3.13937 4.69626 2.09668 5.73895 2.09668 7.02578C2.09668 8.31261 3.13937 9.3553 4.4262 9.3553H12.696C13.9828 9.3553 15.0255 8.31261 15.0255 7.02578C15.0255 5.73895 13.9828 4.69626 12.696 4.69626Z" fill="#E1E8ED"/>
</svg>
