<svg width="375" height="89" viewBox="0 0 375 89" fill="none" xmlns="http://www.w3.org/2000/svg">
<g filter="url(#filter0_d_755_2299)">
<path fill-rule="evenodd" clip-rule="evenodd" d="M144 49C163.33 49 179 33.33 179 14C179 11.1715 178.664 8.42143 178.031 5.78731C177.357 2.98347 179.317 0 182.2 0H345C361.569 0 375 13.4315 375 30V59C375 75.5685 361.569 89 345 89H30C13.4315 89 0 75.5685 0 59V30C0 13.4315 13.4315 0 30 0H105.799C108.683 0 110.643 2.98348 109.969 5.78732C109.336 8.42143 109 11.1715 109 14C109 33.33 124.67 49 144 49Z" fill="#F8F7FB"/>
</g>
<defs>
<filter id="filter0_d_755_2299" x="-53" y="-55" width="475" height="189" filterUnits="userSpaceOnUse" color-interpolation-filters="sRGB">
<feFlood flood-opacity="0" result="BackgroundImageFix"/>
<feColorMatrix in="SourceAlpha" type="matrix" values="0 0 0 0 0 0 0 0 0 0 0 0 0 0 0 0 0 0 127 0" result="hardAlpha"/>
<feOffset dx="-3" dy="-5"/>
<feGaussianBlur stdDeviation="25"/>
<feComposite in2="hardAlpha" operator="out"/>
<feColorMatrix type="matrix" values="0 0 0 0 0.63974 0 0 0 0 0.647849 0 0 0 0 0.720833 0 0 0 0.25 0"/>
<feBlend mode="normal" in2="BackgroundImageFix" result="effect1_dropShadow_755_2299"/>
<feBlend mode="normal" in="SourceGraphic" in2="effect1_dropShadow_755_2299" result="shape"/>
</filter>
</defs>
</svg>
