<svg width="375" height="89" viewBox="0 0 375 89" fill="none" xmlns="http://www.w3.org/2000/svg">
<g filter="url(#filter0_d_754_3563)">
<path fill-rule="evenodd" clip-rule="evenodd" d="M57 49C76.33 49 92 33.33 92 14C92 11.1715 91.6645 8.42143 91.0311 5.78732C90.3569 2.98348 92.3167 0 95.2005 0H345C361.569 0 375 13.4315 375 30V59C375 75.5685 361.569 89 345 89H30C13.4315 89 0 75.5685 0 59V30C0 17.8098 7.27071 7.31774 17.7122 2.62383C20.6019 1.32477 23.1914 4.37155 22.6052 7.48516C22.2079 9.59599 22 11.7737 22 14C22 33.33 37.67 49 57 49Z" fill="#F8F7FB"/>
</g>
<defs>
<filter id="filter0_d_754_3563" x="-53" y="-55" width="475" height="189" filterUnits="userSpaceOnUse" color-interpolation-filters="sRGB">
<feFlood flood-opacity="0" result="BackgroundImageFix"/>
<feColorMatrix in="SourceAlpha" type="matrix" values="0 0 0 0 0 0 0 0 0 0 0 0 0 0 0 0 0 0 127 0" result="hardAlpha"/>
<feOffset dx="-3" dy="-5"/>
<feGaussianBlur stdDeviation="25"/>
<feComposite in2="hardAlpha" operator="out"/>
<feColorMatrix type="matrix" values="0 0 0 0 0.63974 0 0 0 0 0.647849 0 0 0 0 0.720833 0 0 0 0.25 0"/>
<feBlend mode="normal" in2="BackgroundImageFix" result="effect1_dropShadow_754_3563"/>
<feBlend mode="normal" in="SourceGraphic" in2="effect1_dropShadow_754_3563" result="shape"/>
</filter>
</defs>
</svg>
