<svg width="59" height="59" viewBox="0 0 59 59" fill="none" xmlns="http://www.w3.org/2000/svg">
<path d="M1.00568 12.4033C1.00568 9.38049 2.2065 6.48145 4.34398 4.34398C6.48145 2.2065 9.38049 1.00568 12.4033 1.00568H46.5963C49.6192 1.00568 52.5182 2.2065 54.6557 4.34398C56.7932 6.48145 57.994 9.38049 57.994 12.4033V46.5963C57.994 49.6192 56.7932 52.5182 54.6557 54.6557C52.5182 56.7932 49.6192 57.994 46.5963 57.994H12.4033C9.38049 57.994 6.48145 56.7932 4.34398 54.6557C2.2065 52.5182 1.00568 49.6192 1.00568 46.5963V12.4033Z" stroke="#A1ABC0" stroke-width="2" stroke-linecap="round" stroke-linejoin="round"/>
<path d="M19.527 26.6503C23.4613 26.6503 26.6506 23.461 26.6506 19.5268C26.6506 15.5926 23.4613 12.4033 19.527 12.4033C15.5928 12.4033 12.4035 15.5926 12.4035 19.5268C12.4035 23.461 15.5928 26.6503 19.527 26.6503Z" stroke="#A1ABC0" stroke-width="2" stroke-linecap="round" stroke-linejoin="round"/>
<path d="M36.6976 31.2694L12.4035 57.9941H46.9755C49.8978 57.9941 52.7005 56.8332 54.7669 54.7668C56.8333 52.7004 57.9942 49.8978 57.9942 46.9754V46.5964C57.9942 45.2686 57.4955 44.7586 56.5979 43.7755L45.1148 31.2523C44.5796 30.6685 43.9286 30.2027 43.2033 29.8845C42.4781 29.5664 41.6944 29.4029 40.9024 29.4045C40.1105 29.4061 39.3275 29.5728 38.6035 29.8939C37.8795 30.215 37.2304 30.6835 36.6976 31.2694V31.2694Z" stroke="#A1ABC0" stroke-width="2" stroke-linecap="round" stroke-linejoin="round"/>
</svg>
